<svg id="Layer_1" enable-background="new 0 0 512.074 512.074" height="512" viewBox="0 0 512.074 512.074" width="512" xmlns="http://www.w3.org/2000/svg"><g><path d="m190.186 339.362 154.112-83.325-154.112-83.325zm30-116.326 61.036 33.001-61.036 33.001z"/><path d="m0 470.647h512.074v-429.22h-512.074zm120.519-60.302v30.303h-30.26v-30.303zm30 0h30.259v30.303h-30.259zm60.258 0h30.26v30.303h-30.26zm60.26 0h30.26v30.303h-30.26zm60.26 0h30.259v30.303h-30.259zm60.259 0h30.26v30.303h-30.26zm-361.556-30v-248.616h452.074v248.615h-452.074zm301.297-278.616v-30.302h30.259v30.303h-30.259zm-30 0h-30.26v-30.302h30.26zm-60.26 0h-30.26v-30.302h30.26zm-60.26 0h-30.259v-30.302h30.259zm-60.258 0h-30.26v-30.302h30.26zm271.037 0v-30.302h30.26v30.303h-30.26zm-361.556-30.302h30.259v30.303h-30.259zm0 338.918h30.259v30.303h-30.259zm452.074 30.302h-30.259v-30.303h30.259zm-30.259-338.918v-30.302h30.259v30.303h-30.259z"/></g></svg>