<?xml version="1.0" encoding="UTF-8" standalone="no"?>
<!-- Generator: Adobe Illustrator 16.0.0, SVG Export Plug-In . SVG Version: 6.00 Build 0)  -->
<!DOCTYPE svg  PUBLIC '-//W3C//DTD SVG 1.1//EN'  'http://www.w3.org/Graphics/SVG/1.1/DTD/svg11.dtd'>
<svg id="Capa_1" style="enable-background:new 0 0 197.033 197.033" xmlns="http://www.w3.org/2000/svg" xml:space="preserve" height="197.03px" viewBox="0 0 197.033 197.033" width="197.03px" version="1.1" y="0px" x="0px" xmlns:xlink="http://www.w3.org/1999/xlink">
		<path d="m40.685 106.65c-22.473 0-40.685-7.281-40.685-16.272v16.273c0 8.994 18.212 16.276 40.685 16.276s40.679-7.282 40.679-16.276v-16.272c-0.001 8.991-18.207 16.272-40.679 16.272z"/>
		<path d="m40.685 131.06c-22.473 0-40.685-7.28-40.685-16.27v16.275c0 8.994 18.212 16.277 40.685 16.277s40.679-7.283 40.679-16.277v-16.275c-0.001 9-18.207 16.28-40.679 16.28z"/>
		<path d="m40.685 49.693c-22.473 0-40.685 7.284-40.685 16.274v16.276c0 8.997 18.212 16.273 40.685 16.273s40.679-7.276 40.679-16.273v-16.276c-0.001-8.99-18.207-16.274-40.679-16.274zm0 28.477c-22.353 0-36.62-7.228-36.62-12.209s14.261-12.209 36.62-12.209c22.354 0 36.614 7.228 36.614 12.209s-14.267 12.209-36.614 12.209z"/>
		<path d="m156.34 131.06c-22.469 0-40.676-7.282-40.676-16.275v16.275c0 8.994 18.207 16.277 40.676 16.277 22.475 0 40.688-7.283 40.688-16.277v-16.275c0.01 9-18.2 16.28-40.69 16.28z"/>
		<path d="m156.34 74.105c-22.469 0-40.676 7.282-40.676 16.273v16.273c0 8.994 18.207 16.276 40.676 16.276 22.475 0 40.688-7.282 40.688-16.276v-16.272c0.01-8.99-18.2-16.273-40.69-16.273zm0 28.475c-22.348 0-36.608-7.23-36.608-12.212 0-4.98 14.261-12.208 36.608-12.208 22.359 0 36.62 7.228 36.62 12.208 0 4.986-14.25 12.212-36.62 12.212z"/>
		<rect y="103.53" x="82.928" height="6.235" width="31.177"/>
</svg>
