<?xml version="1.0" encoding="UTF-8" standalone="no"?>
<!-- Generator: Adobe Illustrator 16.0.0, SVG Export Plug-In . SVG Version: 6.00 Build 0)  -->

<svg
   xmlns:dc="http://purl.org/dc/elements/1.1/"
   xmlns:cc="http://creativecommons.org/ns#"
   xmlns:rdf="http://www.w3.org/1999/02/22-rdf-syntax-ns#"
   xmlns:svg="http://www.w3.org/2000/svg"
   xmlns="http://www.w3.org/2000/svg"
   xmlns:sodipodi="http://sodipodi.sourceforge.net/DTD/sodipodi-0.dtd"
   xmlns:inkscape="http://www.inkscape.org/namespaces/inkscape"
   version="1.1"
   id="Capa_1"
   x="0px"
   y="0px"
   width="963px"
   height="963px"
   viewBox="0 0 963 963"
   style="enable-background:new 0 0 963 963;"
   xml:space="preserve"
   sodipodi:docname="upArrow.svg"
   inkscape:version="0.92.4 (f8dce91, 2019-08-02)"><metadata
   id="metadata41"><rdf:RDF><cc:Work
       rdf:about=""><dc:format>image/svg+xml</dc:format><dc:type
         rdf:resource="http://purl.org/dc/dcmitype/StillImage" /></cc:Work></rdf:RDF></metadata><defs
   id="defs39" /><sodipodi:namedview
   pagecolor="#ffffff"
   bordercolor="#666666"
   borderopacity="1"
   objecttolerance="10"
   gridtolerance="10"
   guidetolerance="10"
   inkscape:pageopacity="0"
   inkscape:pageshadow="2"
   inkscape:window-width="1920"
   inkscape:window-height="1016"
   id="namedview37"
   showgrid="false"
   inkscape:zoom="0.2450675"
   inkscape:cx="-257.07203"
   inkscape:cy="481.5"
   inkscape:window-x="0"
   inkscape:window-y="27"
   inkscape:window-maximized="1"
   inkscape:current-layer="Capa_1" />
<g
   id="g4"
   style="fill:#2c3e50;fill-opacity:1">
	<path
   d="M481.5,963C747.4,963,963,747.4,963,481.5C963,215.6,747.4,0,481.5,0C215.6,0,0,215.6,0,481.5C0,747.4,215.6,963,481.5,963   z M543.3,271.4l233.2,213.401c19.4,17.799,29.2,42.1,29.2,66.398c0,21.701-7.8,43.5-23.601,60.701   C748.5,648.6,691.6,651.1,654.9,617.5L482.6,459.8L305.3,622.4c-36.6,33.6-93.6,31.1-127.2-5.5s-31.1-93.6,5.5-127.201L421.7,271.4   C456.2,239.9,508.9,239.9,543.3,271.4z"
   id="path2"
   style="fill:#2c3e50;fill-opacity:1" />
</g>
<g
   id="g6">
</g>
<g
   id="g8">
</g>
<g
   id="g10">
</g>
<g
   id="g12">
</g>
<g
   id="g14">
</g>
<g
   id="g16">
</g>
<g
   id="g18">
</g>
<g
   id="g20">
</g>
<g
   id="g22">
</g>
<g
   id="g24">
</g>
<g
   id="g26">
</g>
<g
   id="g28">
</g>
<g
   id="g30">
</g>
<g
   id="g32">
</g>
<g
   id="g34">
</g>
</svg>